<?xml version="1.0" encoding="UTF-8" standalone="no"?>
<!DOCTYPE svg PUBLIC "-//W3C//DTD SVG 1.1//EN" "http://www.w3.org/Graphics/SVG/1.1/DTD/svg11.dtd">
<svg width="100%" height="100%" viewBox="0 0 192 192" version="1.1" xmlns="http://www.w3.org/2000/svg" xmlns:xlink="http://www.w3.org/1999/xlink" xml:space="preserve" xmlns:serif="http://www.serif.com/" style="fill-rule:evenodd;clip-rule:evenodd;stroke-linejoin:round;stroke-miterlimit:2;">
    <rect id="Artboard1" x="0" y="0" width="191.262" height="191.86" style="fill:none;"/>
    <g id="Artboard11" serif:id="Artboard1">
        <g transform="matrix(1,0,0,1,7.28917,-1.95589)">
            <path d="M147.769,102.342C151.388,95.713 151.963,89.388 151.963,85.938C151.963,71.834 141.579,60.166 128.05,58.136C122.875,22.521 93.416,11.934 93.077,11.799C92.401,11.562 91.624,11.833 91.251,12.442C90.879,13.051 90.947,13.862 91.488,14.37C94.396,17.279 95.614,19.951 95.209,22.556C94.262,28.88 83.844,34.393 75.49,38.79C73.528,39.838 71.634,40.819 69.943,41.8C66.324,43.863 62.468,45.723 58.714,47.516C45.794,53.74 32.536,60.132 28.511,75.589C27.26,78.768 26.549,82.252 26.549,85.871C26.549,88.813 27.056,95.003 30.54,101.666C17.654,106.063 8.352,118.307 8.352,132.715C8.352,142.355 11.937,165.996 45.083,177.598C60.405,182.942 77.079,184.058 88.342,184.058C147.328,184.058 168.332,157.541 168.332,132.715C168.366,118.982 159.843,107.178 147.769,102.342Z" style="fill:rgb(165,118,85);fill-rule:nonzero;"/>
        </g>
        <g transform="matrix(1,0,0,1,7.28917,-1.95589)">
            <path d="M62.333,85.701C66.798,85.701 70.416,89.32 70.416,93.784L70.416,106.163C70.416,110.628 66.797,114.247 62.333,114.247C57.869,114.247 54.25,110.628 54.25,106.163L54.25,93.784C54.25,89.32 57.869,85.701 62.333,85.701Z" style="fill:rgb(43,59,71);fill-rule:nonzero;"/>
        </g>
        <g transform="matrix(1,0,0,1,7.28917,-1.95589)">
            <path d="M117.971,85.701C122.436,85.701 126.055,89.32 126.055,93.784L126.055,106.163C126.055,110.628 122.436,114.247 117.971,114.247C113.507,114.247 109.888,110.628 109.888,106.163L109.888,93.784C109.888,89.32 113.507,85.701 117.971,85.701Z" style="fill:rgb(43,59,71);fill-rule:nonzero;"/>
        </g>
        <g transform="matrix(1,0,0,1,7.28917,-1.95589)">
            <path d="M128.253,132.984C127.171,131.09 125.142,129.907 122.943,129.907L56.82,129.907C54.621,129.907 52.592,131.091 51.509,132.984C50.427,134.879 50.427,137.213 51.543,139.106C55.703,146.209 61.656,151.79 68.657,155.51C74.339,150.876 81.712,151.045 89.863,151.045C98.014,151.045 105.387,150.876 111.07,155.51C118.071,151.789 124.024,146.208 128.184,139.106C129.302,137.246 129.335,134.879 128.253,132.984Z" style="fill:rgb(43,59,71);fill-rule:nonzero;"/>
        </g>
        <g transform="matrix(1,0,0,1,7.28917,-1.95589)">
            <path d="M68.658,155.544C75.016,158.927 82.254,160.753 89.864,160.753C97.474,160.753 104.713,158.893 111.071,155.544C105.388,150.91 98.015,151.08 89.864,151.08C81.747,151.046 74.374,150.91 68.658,155.544Z" style="fill:rgb(255,71,62);fill-rule:nonzero;"/>
        </g>
    </g>
</svg>
